<?xml version="1.0" encoding="UTF-8" standalone="no"?>
<!DOCTYPE svg PUBLIC "-//W3C//DTD SVG 1.1//EN" "http://www.w3.org/Graphics/SVG/1.1/DTD/svg11.dtd">
<svg width="100%" height="100%" viewBox="0 0 15 11" version="1.1" xmlns="http://www.w3.org/2000/svg" xmlns:xlink="http://www.w3.org/1999/xlink" xml:space="preserve" xmlns:serif="http://www.serif.com/" style="fill-rule:evenodd;clip-rule:evenodd;stroke-linejoin:round;stroke-miterlimit:2;">
    <g transform="matrix(1,0,0,1,-986.323,-1238.65)">
        <path d="M1000.95,1240.29C1000.79,1239.64 1000.27,1239.15 999.612,1238.98C998.464,1238.65 993.788,1238.65 993.788,1238.65C993.788,1238.65 989.112,1238.65 987.964,1238.98C987.308,1239.15 986.816,1239.64 986.624,1240.29C986.323,1241.47 986.323,1243.9 986.323,1243.9C986.323,1243.9 986.323,1246.36 986.624,1247.54C986.816,1248.17 987.308,1248.66 987.964,1248.85C989.112,1249.15 993.788,1249.15 993.788,1249.15C993.788,1249.15 998.464,1249.15 999.64,1248.85C1000.27,1248.66 1000.79,1248.17 1000.95,1247.54C1001.25,1246.36 1001.25,1243.9 1001.25,1243.9C1001.25,1243.9 1001.25,1241.47 1000.95,1240.29ZM992.257,1246.15L992.257,1241.69L996.167,1243.9L992.257,1246.15Z" style="fill:rgb(250,250,250);fill-rule:nonzero;"/>
    </g>
</svg>
